<svg xmlns="http://www.w3.org/2000/svg" width="21.931" height="31.524" viewBox="0 0 21.931 31.524"><g transform="translate(-16 -1.987)"><path d="M37.855,8.542,37.834,8.5a.64.64,0,0,0-.11-.144h0L31.558,2.19h0a.642.642,0,0,0-.14-.106l-.038-.021a.649.649,0,0,0-.171-.072h0a.513.513,0,0,0-.134,0H18.056A2.056,2.056,0,0,0,16,4.047V31.456a2.056,2.056,0,0,0,2.056,2.056H35.871a2.056,2.056,0,0,0,2.056-2.056V8.844a.523.523,0,0,0,0-.127h0A.649.649,0,0,0,37.855,8.542ZM31.76,4.332l3.827,3.827H32.2a.435.435,0,0,1-.435-.435Zm4.111,27.809H18.056a.685.685,0,0,1-.685-.685V4.047a.685.685,0,0,1,.685-.685H30.389V7.723A1.809,1.809,0,0,0,32.2,9.529h4.361V31.456A.685.685,0,0,1,35.871,32.141Z" fill="#fff"/><path d="M46.537,35.167a.685.685,0,0,0-.685.685v2.056a2.741,2.741,0,0,1-5.482,0V32.083a1.713,1.713,0,0,1,3.426,0v4.738a.514.514,0,0,1-1.028,0V32.083a.685.685,0,0,0-1.37,0v4.738a1.884,1.884,0,1,0,3.769,0V32.083a3.083,3.083,0,0,0-6.167,0v5.824a4.111,4.111,0,1,0,8.223,0V35.852A.685.685,0,0,0,46.537,35.167Z" transform="translate(-15.12 -17.758)" fill="#329ffd"/></g></svg>