<svg xmlns="http://www.w3.org/2000/svg" width="31.621" height="26.122" viewBox="0 0 31.621 26.122"><g transform="translate(-1 -5)"><g transform="translate(1 5)"><g transform="translate(8.249 8.139)"><path d="M13.687,18.375H27.436a.687.687,0,0,0,0-1.375H13.687a.687.687,0,0,0,0,1.375Z" transform="translate(-13 -17)" fill="#329ffd" fill-rule="evenodd"/></g><g transform="translate(8.249 4.5)"><path d="M13.687,14.375H27.436a.687.687,0,0,0,0-1.375H13.687a.687.687,0,0,0,0,1.375Z" transform="translate(-13 -13)" fill="#329ffd" fill-rule="evenodd"/></g><g transform="translate(8.249 11.779)"><path d="M13.687,22.375H27.436a.687.687,0,0,0,0-1.375H13.687a.687.687,0,0,0,0,1.375Z" transform="translate(-13 -21)" fill="#329ffd" fill-rule="evenodd"/></g><path d="M3.75,17.853,1.12,21.8a.686.686,0,0,0-.12.388V29.06a2.062,2.062,0,0,0,2.062,2.062h27.5a2.062,2.062,0,0,0,2.062-2.062V22.185a.686.686,0,0,0-.12-.388l-2.629-3.944V7.062A2.062,2.062,0,0,0,27.809,5h-22A2.062,2.062,0,0,0,3.75,7.062Zm27.5,5.02V29.06a.688.688,0,0,1-.687.687H3.062a.688.688,0,0,1-.687-.687V22.873H9.367a.687.687,0,0,1,.486.2L11.8,25.018a2.062,2.062,0,0,0,1.458.6h7.111a2.062,2.062,0,0,0,1.458-.6l1.944-1.944a.687.687,0,0,1,.486-.2ZM28.5,21.5V7.062a.688.688,0,0,0-.687-.687h-22a.688.688,0,0,0-.687.687V21.5H9.367a2.062,2.062,0,0,1,1.458.6l1.944,1.944a.687.687,0,0,0,.486.2h7.111a.687.687,0,0,0,.486-.2L22.8,22.1a2.062,2.062,0,0,1,1.458-.6ZM3.75,20.331,2.972,21.5H3.75Zm26.9,1.167-.777-1.167V21.5Z" transform="translate(-1 -5)" fill="#fff" fill-rule="evenodd"/></g></g></svg>