<svg xmlns="http://www.w3.org/2000/svg" width="71" height="71" viewBox="0 0 71 71"><defs><style>.cls-1{fill:#060144;}.cls-2{fill:#fff;}.cls-3{fill:#329ffd;}</style></defs><g id="Calque_2" data-name="Calque 2"><g id="Calque_1-2" data-name="Calque 1"><circle id="Ellipse_61" data-name="Ellipse 61" class="cls-1" cx="35.5" cy="35.5" r="35.5"/><g id="Groupe_919" data-name="Groupe 919"><g id="Groupe_918" data-name="Groupe 918"><path class="cls-2" d="M51,33.32h0V26.18a1.74,1.74,0,0,0-1.72-1.73H41.31V22.16a2.8,2.8,0,0,0-2.78-2.78H32.46a2.79,2.79,0,0,0-2.78,2.78v2.29h-7.9a1.73,1.73,0,0,0-1.73,1.73V45.52a1.73,1.73,0,0,0,1.73,1.73H49.22A1.74,1.74,0,0,0,51,45.52V33.32ZM31.18,22.16a1.29,1.29,0,0,1,1.28-1.28h6.07a1.3,1.3,0,0,1,1.28,1.28v2.29H31.18Zm18,23.59H21.78a.23.23,0,0,1-.23-.23V34.07H33.47a.75.75,0,0,0,0-1.5H21.55V26.18a.23.23,0,0,1,.23-.23H49.22a.23.23,0,0,1,.23.23v6.39H37.53a.75.75,0,0,0,0,1.5H49.45V45.52A.23.23,0,0,1,49.22,45.75Z"/><path class="cls-3" d="M35.5,38.13a2.79,2.79,0,0,1-2.78-2.78V32.3a2.79,2.79,0,0,1,2.78-2.78h0a2.79,2.79,0,0,1,2.78,2.78h0v3.05a2.79,2.79,0,0,1-2.78,2.78Zm0-7.11a1.28,1.28,0,0,0-1.28,1.28v3.05a1.26,1.26,0,0,0,.37.9,1.31,1.31,0,0,0,.91.38h0a1.29,1.29,0,0,0,1.28-1.28V32.3A1.29,1.29,0,0,0,35.5,31Z"/></g></g></g></g></svg>