<svg xmlns="http://www.w3.org/2000/svg" width="16.282" height="19.603" viewBox="0 0 16.282 19.603">
  <g id="delete-icon" transform="translate(0.25 0.25)">
    <path id="Path_345" data-name="Path 345" d="M25.517,25.749v9.408A3.678,3.678,0,0,0,29.159,39.1h5.463a3.678,3.678,0,0,0,3.642-3.945V25.749a1.517,1.517,0,0,0,0-3.035H35.533A2.717,2.717,0,0,0,32.818,20H30.964a2.717,2.717,0,0,0-2.715,2.714H25.517a1.517,1.517,0,1,0,0,3.035Zm12.14,9.408A3.092,3.092,0,0,1,34.622,38.5H29.159a3.092,3.092,0,0,1-3.035-3.338V25.749H37.657ZM30.963,20.607h1.855a2.11,2.11,0,0,1,2.108,2.107h-6.07A2.11,2.11,0,0,1,30.963,20.607Zm-5.446,2.714H38.264a.91.91,0,0,1,0,1.821H25.517a.91.91,0,1,1,0-1.821Z" transform="translate(-24 -20)" fill="#fb5507" stroke="#fb5507" stroke-width="0.5"/>
    <rect id="Rectangle_204" data-name="Rectangle 204" width="0.607" height="7.891" transform="translate(7.587 7.891)" fill="#fb5507" stroke="#fb5507" stroke-width="0.5"/>
    <rect id="Rectangle_205" data-name="Rectangle 205" width="0.607" height="7.891" transform="translate(4.856 7.891)" fill="#fb5507" stroke="#fb5507" stroke-width="0.5"/>
    <rect id="Rectangle_206" data-name="Rectangle 206" width="0.607" height="7.891" transform="translate(10.319 7.891)" fill="#fb5507" stroke="#fb5507" stroke-width="0.5"/>
  </g>
</svg>
