<svg xmlns="http://www.w3.org/2000/svg" xmlns:xlink="http://www.w3.org/1999/xlink" width="18.31" height="18.376" viewBox="0 0 18.31 18.376"><defs><clipPath id="a"><path d="M0,7.286H18.31V-11.09H0Z" transform="translate(0 11.09)" fill="#fff"/></clipPath></defs><g transform="translate(0 0)" clip-path="url(#a)"><g transform="translate(0.207 0.208)"><path d="M6.641.462A3.789,3.789,0,0,0,4.132-.7,3.219,3.219,0,0,0,1.65.216L-8.025,9.879a.38.38,0,0,0-.124.249L-10.093,16.4a.628.628,0,0,0,.166.577.8.8,0,0,0,.461.2.378.378,0,0,0,.214-.048l6.313-1.94.02-.018a.27.27,0,0,0,.152-.07L6.89,5.448A3.578,3.578,0,0,0,6.641.462M-3.334,13.93l-1.617-.981L3.077,4.888l1.3,1.3ZM2.212,4.022l-8.07,8.061-.981-1.616L.911,2.724Zm.3-2.941A2.194,2.194,0,0,1,4.131.456a2.563,2.563,0,0,1,1.687.789,2.689,2.689,0,0,1,.789,1.683,2.047,2.047,0,0,1-.625,1.614l-.822.822L1.7,1.94ZM-6.426,13.268a.539.539,0,0,0,.249.249l1.556.958-3.957,1.233,1.215-3.973ZM-6.154,13.2Z" transform="translate(10.108 0.704)" fill="#fff"/></g><g transform="translate(0.207 0.208)"><path d="M6.641.462A3.789,3.789,0,0,0,4.132-.7,3.219,3.219,0,0,0,1.65.216L-8.025,9.879a.38.38,0,0,0-.124.249L-10.093,16.4a.628.628,0,0,0,.166.577.8.8,0,0,0,.461.2.378.378,0,0,0,.214-.048l6.313-1.94.02-.018a.27.27,0,0,0,.152-.07L6.89,5.448A3.578,3.578,0,0,0,6.641.462ZM-3.334,13.93l-1.617-.981L3.077,4.888l1.3,1.3ZM2.212,4.022l-8.07,8.061-.981-1.616L.911,2.724Zm.3-2.941A2.194,2.194,0,0,1,4.131.456a2.563,2.563,0,0,1,1.687.789,2.689,2.689,0,0,1,.789,1.683,2.047,2.047,0,0,1-.625,1.614l-.822.822L1.7,1.94ZM-6.426,13.268a.539.539,0,0,0,.249.249l1.556.958-3.957,1.233,1.215-3.973Zm.272-.065Z" transform="translate(10.108 0.704)" fill="#fff" stroke="#fff" stroke-width="0.25"/></g></g></svg>