<svg xmlns="http://www.w3.org/2000/svg" width="11.822" height="18.996" viewBox="0 0 11.822 18.996">
  <path id="energy-icon" d="M18.868,6.931a.544.544,0,0,0-.458-.272H14.936l1.678-4.978A.518.518,0,0,0,16.129,1H10.791a.511.511,0,0,0-.49.365L7.632,10.079a.517.517,0,0,0,.5.664h3.2L9.9,18.913a.545.545,0,0,0,.316.545.459.459,0,0,0,.191.038.544.544,0,0,0,.43-.229l8-11.808A.545.545,0,0,0,18.868,6.931Zm-7.538,9.8,1.089-6.378A.512.512,0,0,0,12,9.766a.49.49,0,0,0-.089-.008H8.819l2.353-7.729H15.41L13.732,6.991a.545.545,0,0,0,.389.664.532.532,0,0,0,.1.016h3.224Z" transform="translate(-7.359 -0.75)" fill="#329ffd" stroke="#329ffd" stroke-width="0.5"/>
</svg>
