<svg xmlns="http://www.w3.org/2000/svg" width="32.832" height="37.995" viewBox="0 0 32.832 37.995"><g transform="translate(-35.168 -328.81)"><path d="M16.553,26.615c.121,0,.241-.026.362-.034l6.967,9.344c-.009.095-.017.189-.017.293V39.8H15.519a.709.709,0,0,0-.706.706v3.548a.709.709,0,0,0,.706.706H41.733a.709.709,0,0,0,.706-.706V40.506a.709.709,0,0,0-.706-.706H33.4V36.208a4.756,4.756,0,0,0-4.573-4.754l-8.1-8.147c.043-.181.06-.37.086-.56l8.741-6.39a3.374,3.374,0,0,0,1.1.2,3.677,3.677,0,0,0,.93-.138l4.952,4.4-.224,1.8a.706.706,0,0,0,.508.766l2.816.809a.782.782,0,0,0,.2.026.7.7,0,0,0,.672-.508.708.708,0,0,0-.482-.87l-2.23-.637.172-1.352,1.163-1.283,1.748-.215.594,1.817a.707.707,0,0,0,1.343-.439l-.775-2.368a.711.711,0,0,0-.749-.482l-2.256.276-4.917-4.5a3.293,3.293,0,0,0,.06-.586,3.477,3.477,0,0,0-6.941-.3l-9.344,5.477a4.237,4.237,0,0,0-5.6,4.073A4.267,4.267,0,0,0,16.553,26.615ZM41.036,43.347h-24.8V41.2h24.81v2.144Zm-9.042-7.139v3.582H25.276V36.208a3.359,3.359,0,0,1,6.717,0Zm-4.9-4.5a4.824,4.824,0,0,0-2.756,2.463l-5.951-7.983a4.294,4.294,0,0,0,1.74-1.49ZM37.772,18.942l-.551.611-4.314-3.841a3.433,3.433,0,0,0,.611-.663ZM30.65,10.985a2.084,2.084,0,1,1-2.084,2.084A2.086,2.086,0,0,1,30.65,10.985Zm-3.255,3.3a3.5,3.5,0,0,0,.844,1.292L20.66,21.112a4.286,4.286,0,0,0-1.369-2.084Zm-10.842,5.15a2.885,2.885,0,1,1-2.885,2.885A2.885,2.885,0,0,1,16.553,19.433Z" transform="translate(22.878 319.22)" fill="#fff"/><g transform="translate(36 358.805)" fill="#060144" stroke="#329ffd" stroke-width="1.25"><rect width="32" height="8" rx="3" stroke="none"/><rect x="0.625" y="0.625" width="30.75" height="6.75" rx="2.375" fill="none"/></g></g></svg>