<svg xmlns="http://www.w3.org/2000/svg" width="23.551" height="13.92" viewBox="0 0 23.551 13.92">
  <g id="eye-icon" transform="translate(-2.005 -11)">
    <path id="Path_482" data-name="Path 482" d="M25.468,17.666C25.286,17.392,20.944,11,13.781,11S2.275,17.392,2.093,17.666a.535.535,0,0,0,0,.589c.182.273,4.524,6.666,11.687,6.666s11.505-6.392,11.687-6.666A.535.535,0,0,0,25.468,17.666Zm-5.8.294a5.889,5.889,0,1,1-5.889-5.889A5.889,5.889,0,0,1,19.67,17.96ZM3.2,17.96a16.828,16.828,0,0,1,5.311-4.535,6.922,6.922,0,0,0,0,9.069A16.828,16.828,0,0,1,3.2,17.96Zm15.847,4.535a6.922,6.922,0,0,0,0-9.069A16.828,16.828,0,0,1,24.36,17.96,16.828,16.828,0,0,1,19.049,22.495Zm-5.268-.787h.257a3.747,3.747,0,0,0,3.492-3.987V17.7h0a3.748,3.748,0,1,0-3.748,4ZM13.6,15.283h.182a2.677,2.677,0,1,1-.182,0Z" fill="#fff"/>
  </g>
</svg>
