<svg xmlns="http://www.w3.org/2000/svg" width="71" height="71" viewBox="0 0 71 71"><defs><style>.cls-1{fill:#060144;}.cls-2{fill:#fff;}.cls-3{fill:#329ffd;}</style></defs><g id="Calque_2" data-name="Calque 2"><g id="Calque_1-2" data-name="Calque 1"><circle id="Ellipse_60" data-name="Ellipse 60" class="cls-1" cx="35.5" cy="35.5" r="35.5"/><g id="Groupe_841" data-name="Groupe 841"><path class="cls-2" d="M42.12,47.17s-.09-2.75-.09-6a6.8,6.8,0,0,0-3.92-6.08,5.26,5.26,0,0,0,1-.77,5.57,5.57,0,0,0-3.93-9.52h0a5.57,5.57,0,0,0-2.92,10.32A6.77,6.77,0,0,0,28.39,41v6.89l13.75,0Zm-11-16.81a4.08,4.08,0,0,1,4.08-4.07h0a4.08,4.08,0,1,1,0,8.15h0A4.08,4.08,0,0,1,31.07,30.36Zm-1.18,16V41a5.26,5.26,0,0,1,5.29-5.09h.07a5.29,5.29,0,0,1,5.28,5.23c0,2.23,0,4.22.07,5.27Z"/></g><path class="cls-3" d="M37.37,25.24a4,4,0,0,1,2.71-1h0a4.06,4.06,0,0,1,.29,8.12,5.61,5.61,0,0,1-1.28,2,4.39,4.39,0,0,1-.57.48,5.24,5.24,0,0,1,2.5-.63h.06a5.28,5.28,0,0,1,5.28,5.23c0,2.23.05,4.22.07,5.27l-4.38,0c0,.59,0,1.1,0,1.5l5.9,0,0-.77s-.09-2.75-.09-6A6.79,6.79,0,0,0,43.09,33a5.63,5.63,0,0,0,.94-.75,5.51,5.51,0,0,0,1.64-3.95,5.58,5.58,0,0,0-5.58-5.57h0a5.57,5.57,0,0,0-4.36,2.13A5.34,5.34,0,0,1,37.37,25.24Z"/><path class="cls-3" d="M28.39,44.66H23.87V39.3a5.26,5.26,0,0,1,5.29-5.09h.07a5.1,5.1,0,0,1,2.95.93s0,0,0,0a5.6,5.6,0,0,1-2.31-2.85,3.94,3.94,0,0,1-.77.08h0a4.08,4.08,0,0,1-4.08-4.07,4.08,4.08,0,0,1,4.08-4.08h0A4.06,4.06,0,0,1,32,25.38l.2.24A5.4,5.4,0,0,1,33.64,25a5.55,5.55,0,0,0-4.49-2.31h0a5.6,5.6,0,0,0-5.58,5.58,5.5,5.5,0,0,0,1.64,3.94,5.24,5.24,0,0,0,1.4,1,6.8,6.8,0,0,0-4.22,6.08v6.88h6Z"/><polygon class="cls-3" points="40.59 46.14 40.59 46.14 40.59 46.13 40.59 46.14"/></g></g></svg>