<svg xmlns="http://www.w3.org/2000/svg" xmlns:xlink="http://www.w3.org/1999/xlink" width="26.374" height="26.368" viewBox="0 0 26.374 26.368"><defs><clipPath id="a"><path d="M0,0H26.374V-26.368H0Z" fill="none" stroke="#707070" stroke-width="1"/></clipPath></defs><g transform="translate(0 26.368)"><g clip-path="url(#a)"><g transform="translate(7.19 -3.27)"><path d="M0,0H-6.065V-6.14A6.034,6.034,0,0,1,0-11.958,6.034,6.034,0,0,1,6.073-5.979,6.034,6.034,0,0,1,0,0Z" fill="none" stroke="#329ffd" stroke-width="1.5"/></g><g transform="translate(18.085 -15.593)"><path d="M0,0A4.831,4.831,0,0,0,4.838-4.825,4.831,4.831,0,0,0,0-9.649,4.831,4.831,0,0,0-4.838-4.825,4.831,4.831,0,0,0,0,0Z" fill="none" stroke="#329ffd" stroke-width="1.5"/></g><g transform="translate(7.138 -15.593)"><path d="M0,0A4.831,4.831,0,0,0,4.838-4.825,4.831,4.831,0,0,0,0-9.649,4.831,4.831,0,0,0-4.838-4.825,4.831,4.831,0,0,0,0,0Z" fill="none" stroke="#329ffd" stroke-width="1.5"/></g><g transform="translate(12.99 -3.317)"><path d="M0,0V-6.141a6.032,6.032,0,0,1,6.063-5.817,6.033,6.033,0,0,1,6.072,5.979c0,3.3.087,6.023.087,6.023Z" fill="none" stroke="#329ffd" stroke-width="1.5"/></g><g transform="translate(7.144 -1.539)"><path d="M0,0V-6.141a6.032,6.032,0,0,1,6.063-5.817,6.033,6.033,0,0,1,6.072,5.979c0,3.3.087,6.023.087,6.023Z" fill="#000a53" stroke="#fff" stroke-width="1.5"/></g><g transform="translate(13.157 -13.497)"><path d="M0,0A4.831,4.831,0,0,0,4.838-4.825,4.831,4.831,0,0,0,0-9.649,4.831,4.831,0,0,0-4.838-4.825,4.831,4.831,0,0,0,0,0Z" fill="#000a53" stroke="#fff" stroke-width="1.5"/></g></g></g></svg>