<svg xmlns="http://www.w3.org/2000/svg" width="23.633" height="19.336" viewBox="0 0 23.633 19.336">
  <g id="image-icon" transform="translate(-8.7 -16)">
    <circle id="Ellipse_79" data-name="Ellipse 79" cx="1.604" cy="1.604" r="1.604" transform="translate(24.828 21.386)" fill="#0835b0"/>
    <path id="Path_467" data-name="Path 467" d="M10.848,35.336H30.185a2.146,2.146,0,0,0,2.148-2.148h0V18.148A2.164,2.164,0,0,0,30.185,16H10.848A2.146,2.146,0,0,0,8.7,18.148h0V33.188a2.164,2.164,0,0,0,2.148,2.148Zm0-17.188H30.185V33.188H10.848Z" fill="#0835b0"/>
    <path id="Path_468" data-name="Path 468" d="M23.895,45.461H36.3c.315,0,.43-.2.229-.458l-3.008-4.24a.6.6,0,0,0-.8-.172L30.77,41.823a.594.594,0,0,1-.8-.172h0l-2.349-3.724c-.172-.258-.43-.258-.573.029L23.58,44.974a.358.358,0,0,0,.086.458A.3.3,0,0,0,23.895,45.461Z" transform="translate(-10.583 -15.51)" fill="#0835b0"/>
  </g>
</svg>
