<svg xmlns="http://www.w3.org/2000/svg" width="31" height="24" viewBox="0 0 31 24">
  <g id="left-icon15" transform="translate(-5.643 -12.774)">
    <circle id="Ellipse_79" data-name="Ellipse 79" cx="1.604" cy="1.604" r="1.604" transform="translate(24.828 21.385)" fill="#fff"/>
    <path id="Path_468" data-name="Path 468" d="M23.895,45.461H36.3c.315,0,.43-.2.229-.458l-3.008-4.24a.6.6,0,0,0-.8-.172L30.77,41.823a.594.594,0,0,1-.8-.172h0l-2.349-3.724c-.172-.258-.43-.258-.573.029L23.58,44.974a.358.358,0,0,0,.086.458A.3.3,0,0,0,23.895,45.461Z" transform="translate(-10.583 -15.51)" fill="#329ffd"/>
    <g id="Rectangle_523" data-name="Rectangle 523" transform="translate(5.643 12.774)" fill="none" stroke="#fff" stroke-width="1.5">
      <rect width="31" height="24" rx="4" stroke="none"/>
      <rect x="0.75" y="0.75" width="29.5" height="22.5" rx="3.25" fill="none"/>
    </g>
  </g>
</svg>
