<svg xmlns="http://www.w3.org/2000/svg" width="26" height="32" viewBox="0 0 26 32">
  <g id="left-icon17" transform="translate(-38 -211)">
    <g id="Path_486" data-name="Path 486" transform="translate(42 211)" fill="#000a53">
      <path d="M 14 14.25 L 4 14.25 C 2.207940101623535 14.25 0.75 12.79205989837646 0.75 11 L 0.75 4 C 0.75 2.207940101623535 2.207940101623535 0.75 4 0.75 L 14 0.75 C 15.79205989837646 0.75 17.25 2.207940101623535 17.25 4 L 17.25 11 C 17.25 12.79205989837646 15.79205989837646 14.25 14 14.25 Z" stroke="none"/>
      <path d="M 4 1.5 C 2.621500015258789 1.5 1.5 2.621500015258789 1.5 4 L 1.5 11 C 1.5 12.37849998474121 2.621500015258789 13.5 4 13.5 L 14 13.5 C 15.37849998474121 13.5 16.5 12.37849998474121 16.5 11 L 16.5 4 C 16.5 2.621500015258789 15.37849998474121 1.5 14 1.5 L 4 1.5 M 4 0 L 14 0 C 16.20914077758789 0 18 1.790860176086426 18 4 L 18 11 C 18 13.20913982391357 16.20914077758789 15 14 15 L 4 15 C 1.790859222412109 15 0 13.20913982391357 0 11 L 0 4 C 0 1.790860176086426 1.790859222412109 0 4 0 Z" stroke="none" fill="#fff"/>
    </g>
    <g id="Path_487" data-name="Path 487" transform="translate(38 222)" fill="#000a53">
      <path d="M 22 20.25 L 4 20.25 C 2.207940101623535 20.25 0.75 18.79206085205078 0.75 17 L 0.75 4 C 0.75 2.207940101623535 2.207940101623535 0.75 4 0.75 L 22 0.75 C 23.79206085205078 0.75 25.25 2.207940101623535 25.25 4 L 25.25 17 C 25.25 18.79206085205078 23.79206085205078 20.25 22 20.25 Z" stroke="none"/>
      <path d="M 4 1.5 C 2.621500015258789 1.5 1.5 2.621500015258789 1.5 4 L 1.5 17 C 1.5 18.37849998474121 2.621500015258789 19.5 4 19.5 L 22 19.5 C 23.37849998474121 19.5 24.5 18.37849998474121 24.5 17 L 24.5 4 C 24.5 2.621500015258789 23.37849998474121 1.5 22 1.5 L 4 1.5 M 4 0 L 22 0 C 24.20914077758789 0 26 1.790859222412109 26 4 L 26 17 C 26 19.20914077758789 24.20914077758789 21 22 21 L 4 21 C 1.790859222412109 21 0 19.20914077758789 0 17 L 0 4 C 0 1.790859222412109 1.790859222412109 0 4 0 Z" stroke="none" fill="#fff"/>
    </g>
    <rect id="Rectangle_524" data-name="Rectangle 524" width="7" height="7" transform="translate(56 215.019)" fill="#000a53"/>
  </g>
</svg>
