<svg xmlns="http://www.w3.org/2000/svg" width="32.194" height="32.194" viewBox="0 0 32.194 32.194">
  <g id="left-icon22" transform="translate(-33.189 -254.85)">
    <g id="Group_862" data-name="Group 862" transform="translate(13.388 258.69) rotate(-45)">
      <path id="Path_358" data-name="Path 358" d="M24.38,27a7.033,7.033,0,0,0-6.332,3.985H5.374a.307.307,0,0,0-.192.067L2.117,33.534a.306.306,0,0,0-.042.431.3.3,0,0,0,.062.057l4.292,3.037a.307.307,0,0,0,.364-.019l1.648-1.37,1.648,1.37a.307.307,0,0,0,.383,0l1.648-1.37,1.648,1.37a.308.308,0,0,0,.192.076h4.1A7.041,7.041,0,1,0,24.38,27Zm0,.613a6.433,6.433,0,0,1,6.438,6.438,6.5,6.5,0,0,1-6.128,6.43,2.757,2.757,0,0,1-.31.007A6.455,6.455,0,0,1,18.5,36.676a.306.306,0,0,0-.278-.173H14.072L12.31,35.038a.306.306,0,0,0-.383,0l-1.648,1.37-1.648-1.37a.306.306,0,0,0-.383,0L6.59,36.417,2.816,33.754,5.47,31.6H18.221a.307.307,0,0,0,.278-.182,6.447,6.447,0,0,1,5.882-3.8Zm.16,4.236a2.146,2.146,0,1,0,2.146,2.146A2.151,2.151,0,0,0,24.54,31.849Zm0,.613a1.533,1.533,0,1,1-1.533,1.533A1.528,1.528,0,0,1,24.54,32.462Z" transform="translate(0 0)" fill="#fff" stroke="#fff" stroke-width="1"/>
    </g>
    <g id="Ellipse_67" data-name="Ellipse 67" transform="translate(52 262.467)" fill="#060144" stroke="#329ffd" stroke-width="2">
      <circle cx="3" cy="3" r="3" stroke="none"/>
      <circle cx="3" cy="3" r="2" fill="none"/>
    </g>
  </g>
</svg>
