<svg xmlns="http://www.w3.org/2000/svg" width="26" height="32.262" viewBox="0 0 26 32.262">
  <g id="left-icon20" transform="translate(-38 -299)">
    <g id="Group_858" data-name="Group 858" transform="translate(0 88.262)">
      <g id="Path_446" data-name="Path 446" transform="translate(38 222)" fill="#060144">
        <path d="M 22 20.25 L 4 20.25 C 2.207940101623535 20.25 0.75 18.79206085205078 0.75 17 L 0.75 4 C 0.75 2.207940101623535 2.207940101623535 0.75 4 0.75 L 22 0.75 C 23.79206085205078 0.75 25.25 2.207940101623535 25.25 4 L 25.25 17 C 25.25 18.79206085205078 23.79206085205078 20.25 22 20.25 Z" stroke="none"/>
        <path d="M 4 1.5 C 2.621500015258789 1.5 1.5 2.621500015258789 1.5 4 L 1.5 17 C 1.5 18.37849998474121 2.621500015258789 19.5 4 19.5 L 22 19.5 C 23.37849998474121 19.5 24.5 18.37849998474121 24.5 17 L 24.5 4 C 24.5 2.621500015258789 23.37849998474121 1.5 22 1.5 L 4 1.5 M 4 0 L 22 0 C 24.20914077758789 0 26 1.790859222412109 26 4 L 26 17 C 26 19.20914077758789 24.20914077758789 21 22 21 L 4 21 C 1.790859222412109 21 0 19.20914077758789 0 17 L 0 4 C 0 1.790859222412109 1.790859222412109 0 4 0 Z" stroke="none" fill="#fff"/>
      </g>
      <path id="Path_447" data-name="Path 447" d="M150.545,158.018v-8.175a3.289,3.289,0,0,1,3.289-3.289h9.747a3.289,3.289,0,0,1,3.289,3.289v2.367" transform="translate(-107.713 65.184)" fill="none" stroke="#fff" stroke-miterlimit="10" stroke-width="2"/>
    </g>
    <path id="Path_448" data-name="Path 448" d="M229.172,278.671a3.488,3.488,0,1,0-3.788,0l-1.709,2.959h7.2Z" transform="translate(-175.818 43.376)" fill="#329ffd"/>
  </g>
</svg>
