<svg xmlns="http://www.w3.org/2000/svg" width="15.943" height="25.73" viewBox="0 0 15.943 25.73">
  <g id="left-icon14" transform="translate(-43.449 -296.992)">
    <path id="Path_485" data-name="Path 485" d="M22.967,9.091a.742.742,0,0,0-.624-.371H17.6l2.288-6.79A.706.706,0,0,0,19.23,1H11.949a.7.7,0,0,0-.669.5L7.64,13.385a.706.706,0,0,0,.676.906h4.361L10.738,25.435a.743.743,0,0,0,.431.743.626.626,0,0,0,.26.052.743.743,0,0,0,.587-.312L22.93,9.811A.743.743,0,0,0,22.967,9.091ZM12.684,22.464l1.486-8.7a.7.7,0,0,0-.569-.807.669.669,0,0,0-.122-.01H9.259L12.469,2.4h5.78L15.961,9.172a.743.743,0,0,0,.531.906.726.726,0,0,0,.137.022h4.4Z" transform="translate(36.09 296.242)" fill="#329ffd" stroke="#329ffd" stroke-width="0.5"/>
  </g>
</svg>
