<svg xmlns="http://www.w3.org/2000/svg" width="43.062" height="23.863" viewBox="0 0 43.062 23.863">
  <g id="left-icon9" transform="translate(-1242.938 -131.028)">
    <g id="Group_371" data-name="Group 371" transform="translate(499.303 95.142)">
      <g id="Group_170" data-name="Group 170" transform="translate(743.886 36.137)">
        <g id="Group_169" data-name="Group 169" transform="translate(0 0)">
          <g id="Group_168" data-name="Group 168" transform="translate(0 0)">
            <g id="Group_167" data-name="Group 167">
              <path id="Path_177" data-name="Path 177" d="M24.827,34.363H20.536a.477.477,0,0,1-.477-.477V31.6a9.237,9.237,0,0,1-1.832-.759l-1.615,1.615a.477.477,0,0,1-.674,0L12.9,29.424a.477.477,0,0,1,0-.674l1.615-1.615A9.239,9.239,0,0,1,13.76,25.3H11.477A.477.477,0,0,1,11,24.827V20.536a.477.477,0,0,1,.477-.477H13.76a9.24,9.24,0,0,1,.759-1.832L12.9,16.613a.477.477,0,0,1,0-.674L15.939,12.9a.477.477,0,0,1,.674,0l1.615,1.615a9.237,9.237,0,0,1,1.832-.759V11.477A.477.477,0,0,1,20.536,11h4.291a.477.477,0,0,1,.477.477V13.76a9.241,9.241,0,0,1,1.832.759L28.75,12.9a.477.477,0,0,1,.674,0l3.034,3.034a.477.477,0,0,1,0,.674l-1.615,1.615a9.237,9.237,0,0,1,.759,1.832h2.283a.477.477,0,0,1,.477.477v4.291a.477.477,0,0,1-.477.477H31.6a9.239,9.239,0,0,1-.759,1.832l1.615,1.615a.477.477,0,0,1,0,.674l-3.034,3.034a.477.477,0,0,1-.674,0l-1.615-1.615A9.238,9.238,0,0,1,25.3,31.6v2.283A.477.477,0,0,1,24.827,34.363Zm-3.814-.954H24.35V31.239a.477.477,0,0,1,.361-.463,8.29,8.29,0,0,0,2.258-.936.477.477,0,0,1,.583.072l1.535,1.535,2.36-2.36-1.535-1.535a.477.477,0,0,1-.072-.583,8.291,8.291,0,0,0,.936-2.258.477.477,0,0,1,.463-.361h2.171V21.013H31.239a.477.477,0,0,1-.463-.361,8.29,8.29,0,0,0-.936-2.258.477.477,0,0,1,.072-.583l1.535-1.535-2.36-2.36-1.535,1.535a.477.477,0,0,1-.583.072,8.289,8.289,0,0,0-2.258-.936.477.477,0,0,1-.361-.463V11.954H21.013v2.171a.477.477,0,0,1-.361.463,8.289,8.289,0,0,0-2.258.936.477.477,0,0,1-.583-.072l-1.535-1.535-2.36,2.36,1.535,1.535a.477.477,0,0,1,.072.583,8.289,8.289,0,0,0-.936,2.258.477.477,0,0,1-.463.361h-2.17V24.35h2.171a.477.477,0,0,1,.463.361,8.289,8.289,0,0,0,.936,2.258.477.477,0,0,1-.072.583l-1.535,1.535,2.36,2.36,1.535-1.535a.477.477,0,0,1,.583-.072,8.291,8.291,0,0,0,2.258.936.477.477,0,0,1,.361.463v2.171Z" transform="translate(-11 -11)" fill="#fff" stroke="#fff" stroke-width="0.5"/>
            </g>
          </g>
        </g>
      </g>
      <g id="Ellipse_10" data-name="Ellipse 10" transform="translate(751.386 44)" fill="none" stroke="#fff" stroke-width="1.5">
        <circle cx="4" cy="4" r="4" stroke="none"/>
        <circle cx="4" cy="4" r="3.25" fill="none"/>
      </g>
    </g>
    <path id="Polygon_8" data-name="Polygon 8" d="M5.08,0l5.08,8.585H0Z" transform="translate(1286 148.071) rotate(180)" fill="#33bdfc"/>
  </g>
</svg>
