<svg xmlns="http://www.w3.org/2000/svg" width="20.159" height="20.72" viewBox="0 0 20.159 20.72">
  <g id="link-icon" transform="translate(-0.001 -0.001)">
    <g id="Group_1018" data-name="Group 1018" transform="translate(0.001 0.001)">
      <path id="Path_480" data-name="Path 480" d="M43.9,1.162h0a5.3,5.3,0,0,0-7.36.724L35,3.739a1.322,1.322,0,1,0,2.028,1.695h0L38.573,3.58a2.636,2.636,0,0,1,3.713-.327l.055.048a2.691,2.691,0,0,1,.22,3.713L39.34,10.869l-.03.033a2.574,2.574,0,0,1-.6.51,2.631,2.631,0,0,1-3.314-.443,1.322,1.322,0,0,0-1.934,1.8,5.28,5.28,0,0,0,4.758,1.6,5.4,5.4,0,0,0,.8-.2,5.247,5.247,0,0,0,2.353-1.612l3.213-3.845a5.431,5.431,0,0,0,1.224-3.989A5.188,5.188,0,0,0,43.9,1.162Z" transform="translate(-25.675 -0.001)" fill="#329ffd"/>
      <path id="Path_481" data-name="Path 481" d="M8.719,37.137,7.335,38.794a2.692,2.692,0,0,1-3.693.443,2.635,2.635,0,0,1-.441-3.7l.046-.057,3.276-3.922.024-.027a2.573,2.573,0,0,1,.6-.51,2.626,2.626,0,0,1,3.075.215,2.666,2.666,0,0,1,.285.276,1.32,1.32,0,0,0,1.007.446,1.305,1.305,0,0,0,.982-.468l.016-.019a1.3,1.3,0,0,0-.022-1.707,5.276,5.276,0,0,0-8,.109L1.219,33.785a5.3,5.3,0,0,0,.6,7.372A5.188,5.188,0,0,0,5.661,42.4q.247-.02.491-.063a5.428,5.428,0,0,0,3.217-1.851l1.38-1.652a1.322,1.322,0,1,0-2.028-1.695h0Z" transform="translate(-0.001 -21.697)" fill="#329ffd"/>
    </g>
  </g>
</svg>
