<svg xmlns="http://www.w3.org/2000/svg" width="71" height="71" viewBox="0 0 71 71"><defs><style>.cls-1{fill:#060144;}.cls-2{fill:#fff;}.cls-3{fill:#329ffd;}</style></defs><g id="Calque_2" data-name="Calque 2"><g id="Calque_1-2" data-name="Calque 1"><circle id="Ellipse_62" data-name="Ellipse 62" class="cls-1" cx="35.5" cy="35.5" r="35.5"/><g id="Groupe_923" data-name="Groupe 923"><path class="cls-2" d="M30.18,51.62l-.19,0a.76.76,0,0,1-.53-.53l-1.88-7H24.19a.76.76,0,0,1-.75-.75V20.4a.76.76,0,0,1,.75-.75h22.9a.75.75,0,0,1,.75.75V43.3a.76.76,0,0,1-.75.75h-9L30.71,51.4A.75.75,0,0,1,30.18,51.62Zm-5.24-9.07h3.22a.75.75,0,0,1,.72.56l1.69,6.31,6.66-6.65a.75.75,0,0,1,.53-.22h8.58V21.15H24.94Z"/><g id="Groupe_922" data-name="Groupe 922"><rect class="cls-3" x="33.5" y="31.84" width="4" height="7.59"/><circle id="Ellipse_71" data-name="Ellipse 71" class="cls-2" cx="35.5" cy="26.64" r="2.06"/></g></g></g></g></svg>