<svg xmlns="http://www.w3.org/2000/svg" width="12.768" height="15" viewBox="0 0 12.768 15"><g transform="translate(-547.3 -679.8)"><path d="M15.391,3.3h0a.472.472,0,0,0-.353.145.5.5,0,0,0,0,.707l1.542,1.51-.658.08A6.308,6.308,0,1,0,23.067,12a6.141,6.141,0,0,0-1.124-3.565.54.54,0,0,0-.321-.209.5.5,0,0,0-.5.771,5.285,5.285,0,0,1,.948,3,5.4,5.4,0,1,1-6.006-5.284l.915-.1L15.037,8.536a.5.5,0,0,0,.707.707L18.33,6.689a.5.5,0,0,0,0-.707l-2.6-2.537A.462.462,0,0,0,15.391,3.3Z" transform="translate(537 676.5)" fill="#0835b0"/></g></svg>