<svg xmlns="http://www.w3.org/2000/svg" xmlns:xlink="http://www.w3.org/1999/xlink" width="31.572" height="30.426" viewBox="0 0 31.572 30.426"><defs><clipPath id="a"><path d="M0,0H31.572V-30.426H0Z" fill="none"/></clipPath></defs><g transform="translate(0 30.426)"><g clip-path="url(#a)"><g transform="translate(22.656 -3.726)"><path d="M0,0A5.887,5.887,0,0,0,5.887-5.887,5.887,5.887,0,0,0,0-11.773,5.887,5.887,0,0,0-5.887-5.887,5.887,5.887,0,0,0,0,0Z" fill="none" stroke="#fff" stroke-width="2.25"/></g><g transform="translate(27.167 -4.405)"><path d="M0,0,3.609,3.609" fill="none" stroke="#fff" stroke-width="2.25"/></g></g><path d="M18.257-22.914h7.518v-7.511H18.257Z" fill="#329ffd"/><path d="M0-4.669H7.518v-7.512H0Z" fill="#329ffd"/><g transform="translate(0 -22.914)"><path d="M0,0V8.586H2.148V2.146h5.37V0Z" fill="#329ffd"/></g><g transform="translate(5.37 -30.425)"><path d="M0,0V3.219H-3.222V0H-5.37V5.366H2.147V0Z" fill="#329ffd"/></g><g transform="translate(13.507 -4.669)"><path d="M0,0V-2.146H-1.694V-7.512H-3.842V0Z" fill="#329ffd"/></g><g transform="translate(9.666 -30.425)"><path d="M0,0V7.511H4.3V9.658H0v4.293H-2.148V11.8H-4.3V16.1H2.147V11.8h4.3V5.366h-4.3V0Z" fill="#329ffd"/></g><path d="M13.962-27.206h2.147v-3.219H13.962Z" fill="#329ffd"/><path d="M21.479-18.621H18.257v-2.146h3.222Z" fill="#329ffd"/></g></svg>