<svg xmlns="http://www.w3.org/2000/svg" width="71" height="71" viewBox="0 0 71 71"><defs><style>.cls-1{fill:#060144;}.cls-2{fill:#fff;}.cls-3{fill:#329ffd;}</style></defs><g id="Calque_2" data-name="Calque 2"><g id="Calque_1-2" data-name="Calque 1"><circle id="Ellipse_63" data-name="Ellipse 63" class="cls-1" cx="35.5" cy="35.5" r="35.5"/><g id="Groupe_921" data-name="Groupe 921"><path id="Tracé_454" data-name="Tracé 454" class="cls-2" d="M57.76,44.85h-2.1a2.24,2.24,0,0,0,.12-.73V22.68a2.56,2.56,0,0,0-2.55-2.55H18.61a2.56,2.56,0,0,0-2.55,2.55V44.12a2.24,2.24,0,0,0,.12.73H14.09a.92.92,0,0,0-.91.91,5.1,5.1,0,0,0,5.1,5.1H53.56a5.11,5.11,0,0,0,5.1-5.1.9.9,0,0,0-.89-.91Zm-39.88-.73V22.68a.72.72,0,0,1,.71-.73H53.23a.72.72,0,0,1,.73.71V44.12a.73.73,0,0,1-.73.73H18.61a.73.73,0,0,1-.73-.73ZM53.57,49H18.28a3.28,3.28,0,0,1-3.16-2.37h41.6a3.28,3.28,0,0,1-3.15,2.38Z"/><path id="Tracé_455" data-name="Tracé 455" class="cls-3" d="M38.77,26.29a3.15,3.15,0,0,0-2.84-1.76h0a3.15,3.15,0,0,0-2.85,1.76L27.4,37.66a3.19,3.19,0,0,0,2.85,4.61H41.61a3.18,3.18,0,0,0,2.85-4.61Zm4,13.51a1.36,1.36,0,0,1-1.17.65H30.25a1.37,1.37,0,0,1-1.37-1.37,1.43,1.43,0,0,1,.14-.61L34.7,27.11a1.34,1.34,0,0,1,1.22-.76h0a1.38,1.38,0,0,1,1.23.76l5.68,11.36a1.32,1.32,0,0,1-.06,1.33Z"/><rect id="Rectangle_450" data-name="Rectangle 450" class="cls-3" x="35.02" y="29.77" width="1.82" height="5.76"/><rect id="Rectangle_451" data-name="Rectangle 451" class="cls-3" x="35.02" y="37.28" width="1.82" height="1.86"/></g></g></g></svg>